<svg width="229" height="98" viewBox="0 0 229 98" fill="none" xmlns="http://www.w3.org/2000/svg">
<g filter="url(#filter0_d_73_137)">
<rect x="5.5" y="1.5" width="218" height="87" rx="28.5" fill="#FF6400" stroke="white" stroke-width="3"/>
<g filter="url(#filter1_i_73_137)">
<path d="M63.1281 25.75C69.6516 26.5703 72.9133 27.612 72.9133 28.875C72.6268 28.875 72.4836 29.0247 72.4836 29.3242H72.9133L73.8117 28.875C77.9654 33.1068 80.0422 36.5182 80.0422 39.1094L79.593 41.7656V42.2148H80.0422V40.8867H80.4914V44.8906C79.3065 44.8906 78.7141 45.3333 78.7141 46.2188V46.668H79.1437C79.1437 45.7826 79.4432 45.3398 80.0422 45.3398V45.7695C80.0422 46.069 79.8924 46.2188 79.593 46.2188L80.0422 47.1172V47.5664C79.4432 47.5664 79.1437 47.7096 79.1437 47.9961C79.4432 48.569 79.593 49.0182 79.593 49.3438L78.7141 49.7734L79.1437 50.6719C78.8573 51.2448 78.7141 51.6875 78.7141 52L77.8156 51.5703V52C78.1151 52 78.2648 52.1497 78.2648 52.4492C77.1841 53.9336 76.2922 54.6758 75.5891 54.6758L76.0383 55.5742L73.8117 57.3516L72.9133 56.9023L73.3625 57.8008V58.2305C69.6255 60.0143 66.0708 60.9062 62.6984 60.9062H59.1242L53.7922 60.457V57.8008C53.7922 55.431 53.9419 52.3125 54.2414 48.4453C54.2414 48.1458 54.0917 47.9961 53.7922 47.9961L54.2414 44.8906V31.9805L54.6711 27.5273C54.3846 27.5273 54.2414 27.3841 54.2414 27.0977C55.7909 26.4987 58.7531 26.0495 63.1281 25.75ZM64.4758 36.4336V48.8945C64.5669 49.4805 64.8599 49.7734 65.3547 49.7734L66.2531 49.3438C66.774 49.6302 67.3664 49.7734 68.0305 49.7734L68.4797 48.8945V43.1133L68.0305 40.8867H68.4797L68.0305 39.9883V35.5352H65.3547C64.7687 35.6393 64.4758 35.9388 64.4758 36.4336ZM75.5891 38.2109V40.4375H76.4875C76.188 39.9427 76.0383 39.2005 76.0383 38.2109H75.5891ZM78.7141 42.6641V43.5625H79.1437C79.7427 43.5625 80.0422 43.263 80.0422 42.6641H78.7141ZM98.6586 25.75H102.213C104.752 25.75 106.679 26.6419 107.995 28.4258C107.708 28.4258 107.565 28.569 107.565 28.8555H107.995C107.995 28.569 108.144 28.4258 108.444 28.4258C109.928 30.1315 110.67 31.6159 110.67 32.8789L110.221 33.7578H110.67C110.67 33.4583 110.82 33.3086 111.12 33.3086C111.718 38.4128 112.018 42.5729 112.018 45.7891V48.0156C112.018 48.3151 111.868 48.4648 111.569 48.4648C111.569 48.7513 111.718 48.8945 112.018 48.8945C111.276 52.931 110.084 56.0495 108.444 58.25L107.565 57.8008L106.666 58.25C106.666 57.9505 106.517 57.8008 106.217 57.8008V58.25C106.816 58.3411 107.116 58.6406 107.116 59.1484H106.666L105.768 58.6992C105.768 59.2982 105.026 59.8906 103.541 60.4766H98.6586C97.9815 60.4766 97.3826 60.6263 96.8617 60.9258C89.1534 60.9258 85.2992 57.2148 85.2992 49.793C84.9997 49.793 84.85 48.4583 84.85 45.7891V43.1133C84.85 35.0924 86.6273 29.8971 90.182 27.5273C92.6039 26.3424 95.4294 25.75 98.6586 25.75ZM96.432 35.9844V49.3438H96.8617C99.544 49.3438 100.885 48.901 100.885 48.0156C101.172 46.8568 101.315 45.6654 101.315 44.4414V36.4336L99.0883 35.9844H96.432ZM129.267 25.75C133.004 32.3646 135.107 35.6719 135.576 35.6719C135.576 35.3594 135.726 34.9102 136.025 34.3242C136.025 34.0117 135.875 33.5625 135.576 32.9766C135.576 32.651 135.726 32.2018 136.025 31.6289C135.726 30.0013 135.576 28.6471 135.576 27.5664V26.2188H138.291C139.866 26.2188 142.418 26.3685 145.947 26.668V27.5664C145.947 33.6992 145.797 42.1172 145.498 52.8203L145.048 53.7188C145.048 54.0182 145.198 54.168 145.498 54.168L145.048 56.4141V59.1289H144.599C144.013 58.8294 143.564 58.6797 143.252 58.6797L143.701 59.5781C142.841 59.5781 139.983 60.0273 135.127 60.9258C130.699 52.8919 128.297 48.8359 127.92 48.7578L127.47 49.6562L127.92 50.5547H127.47L127.92 51.4531V60.4766H127.47C126.91 60.4766 123.304 60.3268 116.65 60.0273V59.5781C117.249 50.1641 117.548 39.793 117.548 28.4648C117.548 27.5664 121.455 26.6615 129.267 25.75ZM121.611 29.8125L121.162 30.7109H122.509C122.509 30.112 122.21 29.8125 121.611 29.8125ZM144.599 35.2227V37.4883C144.69 38.0872 144.99 38.3867 145.498 38.3867V35.2227H144.599ZM144.599 38.8359C144.899 39.3568 145.048 39.9557 145.048 40.6328H145.498V39.2852L144.599 38.8359ZM164.348 25.6523V26.1016C164.934 25.8021 165.384 25.6523 165.696 25.6523L168.86 26.1016C168.86 25.8021 169.016 25.6523 169.329 25.6523V26.5508H169.778V25.6523L170.677 26.1016H175.188V26.5508C175.188 27.5664 175.039 30.1315 174.739 34.2461H163.899V37.4102C169.381 37.0977 172.845 36.9414 174.29 36.9414V43.7383C174.29 45.2357 173.99 45.9844 173.391 45.9844C167.962 45.9844 165.247 45.6849 165.247 45.0859C164.661 45.3854 164.212 45.5352 163.899 45.5352L164.348 46.4336V47.3516C164.348 47.651 164.199 47.8008 163.899 47.8008C164.199 48.2956 164.348 49.0508 164.348 50.0664L166.614 49.5977V50.0664L167.512 49.5977H174.29L175.188 49.1484V50.0664L174.739 50.9648C175.039 50.9648 175.188 51.1146 175.188 51.4141C174.589 51.5052 174.29 51.8047 174.29 52.3125C174.29 52.9245 174.44 53.2305 174.739 53.2305L173.841 60.9062C170.299 60.6068 167.74 60.457 166.165 60.457H161.184L158.47 60.0078C157.975 60.3073 157.22 60.457 156.204 60.457H153.509V56.8438C153.509 56.1667 153.352 55.5612 153.04 55.0273C153.04 54.7279 153.196 54.5781 153.509 54.5781C152.897 45.8802 152.591 36.388 152.591 26.1016H157.571C159.082 26.1016 161.341 25.9518 164.348 25.6523ZM172.493 44.1875V45.5352C173.092 45.5352 173.391 45.2357 173.391 44.6367V44.1875H172.493Z" fill="white"/>
</g>
</g>
<defs>
<filter id="filter0_d_73_137" x="0" y="0" width="229" height="98" filterUnits="userSpaceOnUse" color-interpolation-filters="sRGB">
<feFlood flood-opacity="0" result="BackgroundImageFix"/>
<feColorMatrix in="SourceAlpha" type="matrix" values="0 0 0 0 0 0 0 0 0 0 0 0 0 0 0 0 0 0 127 0" result="hardAlpha"/>
<feOffset dy="4"/>
<feGaussianBlur stdDeviation="2"/>
<feComposite in2="hardAlpha" operator="out"/>
<feColorMatrix type="matrix" values="0 0 0 0 0 0 0 0 0 0 0 0 0 0 0 0 0 0 0.25 0"/>
<feBlend mode="normal" in2="BackgroundImageFix" result="effect1_dropShadow_73_137"/>
<feBlend mode="normal" in="SourceGraphic" in2="effect1_dropShadow_73_137" result="shape"/>
</filter>
<filter id="filter1_i_73_137" x="53.7922" y="25.6523" width="121.396" height="39.2734" filterUnits="userSpaceOnUse" color-interpolation-filters="sRGB">
<feFlood flood-opacity="0" result="BackgroundImageFix"/>
<feBlend mode="normal" in="SourceGraphic" in2="BackgroundImageFix" result="shape"/>
<feColorMatrix in="SourceAlpha" type="matrix" values="0 0 0 0 0 0 0 0 0 0 0 0 0 0 0 0 0 0 127 0" result="hardAlpha"/>
<feOffset dy="4"/>
<feGaussianBlur stdDeviation="2"/>
<feComposite in2="hardAlpha" operator="arithmetic" k2="-1" k3="1"/>
<feColorMatrix type="matrix" values="0 0 0 0 0 0 0 0 0 0 0 0 0 0 0 0 0 0 0.25 0"/>
<feBlend mode="normal" in2="shape" result="effect1_innerShadow_73_137"/>
</filter>
</defs>
</svg>
