<svg width="605" height="335" viewBox="0 0 605 335" fill="none" xmlns="http://www.w3.org/2000/svg">
<g filter="url(#filter0_diii_75_319)">
<path d="M142.148 75.65L142.448 55.25C142.448 53.85 143.898 52.95 146.798 52.55C149.698 52.05 152.098 51.8 153.998 51.8L159.848 52.25C163.648 52.85 165.548 53.9 165.548 55.4L164.948 102.35C162.948 103.75 158.898 105.15 152.798 106.55C146.798 107.85 139.898 108.5 132.098 108.5C117.598 108.5 105.898 103.8 96.9984 94.4C88.0984 85 83.6484 71.2 83.6484 53C83.6484 37.5 87.9984 24.9 96.6984 15.2C105.398 5.49999 117.448 0.649992 132.848 0.649992C139.848 0.649992 146.148 1.34999 151.748 2.74999C157.448 4.04999 161.348 5.84999 163.448 8.14999C163.548 8.95 163.598 10.45 163.598 12.65C163.598 14.85 162.848 18 161.348 22.1C159.848 26.1 158.148 29.1 156.248 31.1C154.348 33.1 152.948 34.1 152.048 34.1C151.248 34.1 150.348 33.75 149.348 33.05C148.448 32.25 146.598 31.45 143.798 30.65C140.998 29.75 138.298 29.3 135.698 29.3C129.498 29.3 124.448 31.3 120.548 35.3C116.748 39.3 114.848 45.5 114.848 53.9C114.848 62.3 116.798 68.7 120.698 73.1C124.698 77.4 129.248 79.55 134.348 79.55C139.548 79.55 142.148 78.25 142.148 75.65ZM234.113 5C234.113 2.99999 239.513 1.99999 250.313 1.99999C261.213 1.99999 266.663 2.99999 266.663 5V73.85C266.663 84.05 263.013 92.4 255.713 98.9C248.413 105.3 238.313 108.5 225.413 108.5C212.613 108.5 202.163 105.2 194.063 98.6C186.063 91.9 182.063 82.9 182.063 71.6V5.15C182.063 3.14999 187.463 2.14999 198.263 2.14999C209.163 2.14999 214.613 3.14999 214.613 5.15V72.8C214.613 74.8 215.663 76.4 217.763 77.6C219.963 78.8 222.263 79.4 224.663 79.4C227.063 79.4 229.213 78.85 231.113 77.75C233.113 76.65 234.113 75 234.113 72.8V5ZM333.252 43.7C335.152 43.7 336.102 47.2 336.102 54.2C336.102 56.3 335.852 58.8 335.352 61.7C334.952 64.5 334.152 65.9 332.952 65.9H313.902V80.9H341.502C343.202 80.9 344.352 83.1 344.952 87.5C345.252 89.4 345.402 91.45 345.402 93.65C345.402 95.75 345.102 98.5 344.502 101.9C343.902 105.3 342.902 107 341.502 107H290.202C286.402 107 284.502 105.45 284.502 102.35V5.9C284.502 3.29999 285.652 1.99999 287.952 1.99999H341.652C343.752 1.99999 344.802 6.45 344.802 15.35C344.802 24.15 343.752 28.55 341.652 28.55H313.902V43.7H333.252ZM367.627 70.4C369.527 71.9 372.777 73.95 377.377 76.55C382.077 79.15 386.527 80.45 390.727 80.45C395.027 80.45 397.177 78.8 397.177 75.5C397.177 74 396.577 72.7 395.377 71.6C394.177 70.4 391.977 69.05 388.777 67.55C385.577 66.05 383.177 64.9 381.577 64.1C379.977 63.2 377.827 61.8 375.127 59.9C372.527 57.9 370.527 55.85 369.127 53.75C365.127 48.05 363.127 40.8 363.127 32C363.127 23.2 366.377 15.8 372.877 9.8C379.477 3.69999 388.077 0.649992 398.677 0.649992C405.877 0.649992 412.527 1.44999 418.627 3.05C424.727 4.55 427.877 6.54999 428.077 9.04999C428.077 9.34999 428.077 9.65 428.077 9.95C428.077 13.45 426.977 17.9 424.777 23.3C422.577 28.6 421.027 31.55 420.127 32.15C413.727 28.85 407.977 27.2 402.877 27.2C397.877 27.2 395.377 29 395.377 32.6C395.377 34.8 397.227 36.75 400.927 38.45C401.727 38.85 402.877 39.4 404.377 40.1C405.877 40.8 407.577 41.65 409.477 42.65C411.477 43.55 413.577 44.75 415.777 46.25C418.077 47.65 420.527 49.55 423.127 51.95C428.427 56.95 431.077 63.55 431.077 71.75C431.077 82.45 428.127 91.2 422.227 98C416.327 104.8 407.227 108.3 394.927 108.5C388.927 108.5 383.477 108 378.577 107C373.777 106 369.577 104.05 365.977 101.15C362.377 98.25 360.577 94.75 360.577 90.65C360.577 86.55 361.327 82.5 362.827 78.5C364.327 74.4 365.927 71.7 367.627 70.4ZM452.564 70.4C454.464 71.9 457.714 73.95 462.314 76.55C467.014 79.15 471.464 80.45 475.664 80.45C479.964 80.45 482.114 78.8 482.114 75.5C482.114 74 481.514 72.7 480.314 71.6C479.114 70.4 476.914 69.05 473.714 67.55C470.514 66.05 468.114 64.9 466.514 64.1C464.914 63.2 462.764 61.8 460.064 59.9C457.464 57.9 455.464 55.85 454.064 53.75C450.064 48.05 448.064 40.8 448.064 32C448.064 23.2 451.314 15.8 457.814 9.8C464.414 3.69999 473.014 0.649992 483.614 0.649992C490.814 0.649992 497.464 1.44999 503.564 3.05C509.664 4.55 512.814 6.54999 513.014 9.04999C513.014 9.34999 513.014 9.65 513.014 9.95C513.014 13.45 511.914 17.9 509.714 23.3C507.514 28.6 505.964 31.55 505.064 32.15C498.664 28.85 492.914 27.2 487.814 27.2C482.814 27.2 480.314 29 480.314 32.6C480.314 34.8 482.164 36.75 485.864 38.45C486.664 38.85 487.814 39.4 489.314 40.1C490.814 40.8 492.514 41.65 494.414 42.65C496.414 43.55 498.514 44.75 500.714 46.25C503.014 47.65 505.464 49.55 508.064 51.95C513.364 56.95 516.014 63.55 516.014 71.75C516.014 82.45 513.064 91.2 507.164 98C501.264 104.8 492.164 108.3 479.864 108.5C473.864 108.5 468.414 108 463.514 107C458.714 106 454.514 104.05 450.914 101.15C447.314 98.25 445.514 94.75 445.514 90.65C445.514 86.55 446.264 82.5 447.764 78.5C449.264 74.4 450.864 71.7 452.564 70.4ZM224.5 213.6C224.5 215.6 219.55 216.6 209.65 216.6C199.75 216.6 194.8 215.6 194.8 213.6V138.3H176.8C175.1 138.3 173.9 136 173.2 131.4C172.9 129.2 172.75 126.95 172.75 124.65C172.75 122.35 172.9 120.1 173.2 117.9C173.9 113.3 175.1 111 176.8 111H242.05C243.75 111 244.95 113.3 245.65 117.9C245.95 120.1 246.1 122.35 246.1 124.65C246.1 126.95 245.95 129.2 245.65 131.4C244.95 136 243.75 138.3 242.05 138.3H224.5V213.6ZM341.493 213.45C341.493 215.15 336.443 216 326.343 216C316.243 216 311.193 215.15 311.193 213.45V178.95H290.193V213.45C290.193 215.15 285.143 216 275.043 216C264.943 216 259.893 215.15 259.893 213.45V114C259.893 111.9 264.943 110.85 275.043 110.85C285.143 110.85 290.193 111.9 290.193 114V149.25H311.193V114.3C311.193 112.9 313.693 111.9 318.693 111.3C321.293 111.1 323.843 111 326.343 111L333.993 111.3C338.993 111.9 341.493 112.9 341.493 114.3V213.45ZM410.426 152.7C412.326 152.7 413.276 156.2 413.276 163.2C413.276 165.3 413.026 167.8 412.526 170.7C412.126 173.5 411.326 174.9 410.126 174.9H391.076V189.9H418.676C420.376 189.9 421.526 192.1 422.126 196.5C422.426 198.4 422.576 200.45 422.576 202.65C422.576 204.75 422.276 207.5 421.676 210.9C421.076 214.3 420.076 216 418.676 216H367.376C363.576 216 361.676 214.45 361.676 211.35V114.9C361.676 112.3 362.826 111 365.126 111H418.826C420.926 111 421.976 115.45 421.976 124.35C421.976 133.15 420.926 137.55 418.826 137.55H391.076V152.7H410.426ZM87.0486 321.7C87.0486 323.8 82.3486 324.85 72.9486 324.85C63.5486 324.85 58.4486 324.1 57.6486 322.6L32.5986 275.8V322.45C32.5986 324.25 27.9486 325.15 18.6486 325.15C9.44863 325.15 4.84863 324.25 4.84863 322.45V222.1C4.84863 220.6 8.79863 219.85 16.6986 219.85C19.7986 219.85 23.3986 220.15 27.4986 220.75C31.6986 221.25 34.2486 222.25 35.1486 223.75L59.1486 269.95V222.85C59.1486 220.95 63.7986 220 73.0986 220C82.3986 220 87.0486 220.95 87.0486 222.85V321.7ZM156.414 223C156.414 221 161.814 220 172.614 220C183.514 220 188.964 221 188.964 223V291.85C188.964 302.05 185.314 310.4 178.014 316.9C170.714 323.3 160.614 326.5 147.714 326.5C134.914 326.5 124.464 323.2 116.364 316.6C108.364 309.9 104.364 300.9 104.364 289.6V223.15C104.364 221.15 109.764 220.15 120.564 220.15C131.464 220.15 136.914 221.15 136.914 223.15V290.8C136.914 292.8 137.964 294.4 140.064 295.6C142.264 296.8 144.564 297.4 146.964 297.4C149.364 297.4 151.514 296.85 153.414 295.75C155.414 294.65 156.414 293 156.414 290.8V223ZM311.804 325.15C302.904 325.15 298.454 324.15 298.454 322.15L295.304 262L277.004 322.9C276.604 324.1 273.204 324.7 266.804 324.7C260.404 324.7 257.104 324.15 256.904 323.05L238.004 261.4L235.904 321.25C235.804 322.75 233.904 323.8 230.204 324.4C226.504 324.9 223.404 325.15 220.904 325.15C218.504 325.15 216.154 325 213.854 324.7C209.054 324 206.704 322.75 206.804 320.95L210.254 223.45C210.254 221.05 216.354 219.85 228.554 219.85C232.154 219.85 236.554 220.15 241.754 220.75C246.954 221.25 249.854 222.3 250.454 223.9L267.254 271.15L281.954 223.75C282.854 221.15 289.754 219.85 302.654 219.85C306.354 219.85 310.754 220.15 315.854 220.75C321.054 221.25 323.654 222.2 323.654 223.6L328.004 322C328.004 323.1 326.054 323.9 322.154 324.4C318.254 324.9 314.804 325.15 311.804 325.15ZM421.788 247.15C421.788 257.55 417.288 265.45 408.288 270.85C413.188 272.65 417.288 275.75 420.588 280.15C423.888 284.55 425.538 290.8 425.538 298.9C425.538 306.9 422.538 313.25 416.538 317.95C410.638 322.65 402.138 325 391.038 325H355.638C353.938 325 352.538 324.45 351.438 323.35C350.338 322.15 349.788 320.6 349.788 318.7V222.7C349.788 221.6 349.938 220.9 350.238 220.6C350.638 220.2 351.388 220 352.488 220H386.688C410.088 220 421.788 229.05 421.788 247.15ZM378.588 244.3V263.95H379.338C388.938 263.95 393.738 260.75 393.738 254.35C393.738 250.85 392.788 248.3 390.888 246.7C389.088 245.1 386.038 244.3 381.738 244.3H378.588ZM378.588 281.65V301.15H381.288C385.588 301.15 388.738 300.35 390.738 298.75C392.738 297.15 393.738 294.6 393.738 291.1C393.738 287.6 392.788 285.15 390.888 283.75C389.088 282.35 386.038 281.65 381.738 281.65H378.588ZM491.2 261.7C493.1 261.7 494.05 265.2 494.05 272.2C494.05 274.3 493.8 276.8 493.3 279.7C492.9 282.5 492.1 283.9 490.9 283.9H471.85V298.9H499.45C501.15 298.9 502.3 301.1 502.9 305.5C503.2 307.4 503.35 309.45 503.35 311.65C503.35 313.75 503.05 316.5 502.45 319.9C501.85 323.3 500.85 325 499.45 325H448.15C444.35 325 442.45 323.45 442.45 320.35V223.9C442.45 221.3 443.6 220 445.9 220H499.6C501.7 220 502.75 224.45 502.75 233.35C502.75 242.15 501.7 246.55 499.6 246.55H471.85V261.7H491.2ZM550.325 322.9C550.325 324.5 545.575 325.3 536.075 325.3C526.475 325.3 521.675 324.55 521.675 323.05V225.25C521.675 221.75 523.525 220 527.225 220H555.875C582.175 220 595.325 230.25 595.325 250.75C595.325 256.95 594.125 262.6 591.725 267.7C589.325 272.7 585.925 276.7 581.525 279.7L600.425 311.2C599.625 313.6 597.025 316.35 592.625 319.45C586.625 323.75 581.675 325.9 577.775 325.9C573.875 325.9 570.975 324.5 569.075 321.7L554.975 288.85H550.325V322.9ZM550.325 246.55V269.05H551.075C560.575 269.05 565.325 265.1 565.325 257.2C565.325 253.6 564.375 250.95 562.475 249.25C560.675 247.45 557.675 246.55 553.475 246.55H550.325Z" fill="#F9EDED"/>
</g>
<defs>
<filter id="filter0_diii_75_319" x="0.848633" y="-2.34961" width="603.576" height="336.85" filterUnits="userSpaceOnUse" color-interpolation-filters="sRGB">
<feFlood flood-opacity="0" result="BackgroundImageFix"/>
<feColorMatrix in="SourceAlpha" type="matrix" values="0 0 0 0 0 0 0 0 0 0 0 0 0 0 0 0 0 0 127 0" result="hardAlpha"/>
<feOffset dy="4"/>
<feGaussianBlur stdDeviation="2"/>
<feComposite in2="hardAlpha" operator="out"/>
<feColorMatrix type="matrix" values="0 0 0 0 0 0 0 0 0 0 0 0 0 0 0 0 0 0 0.25 0"/>
<feBlend mode="normal" in2="BackgroundImageFix" result="effect1_dropShadow_75_319"/>
<feBlend mode="normal" in="SourceGraphic" in2="effect1_dropShadow_75_319" result="shape"/>
<feColorMatrix in="SourceAlpha" type="matrix" values="0 0 0 0 0 0 0 0 0 0 0 0 0 0 0 0 0 0 127 0" result="hardAlpha"/>
<feOffset dx="1" dy="-7"/>
<feGaussianBlur stdDeviation="1.5"/>
<feComposite in2="hardAlpha" operator="arithmetic" k2="-1" k3="1"/>
<feColorMatrix type="matrix" values="0 0 0 0 0 0 0 0 0 0 0 0 0 0 0 0 0 0 0.25 0"/>
<feBlend mode="normal" in2="shape" result="effect2_innerShadow_75_319"/>
<feColorMatrix in="SourceAlpha" type="matrix" values="0 0 0 0 0 0 0 0 0 0 0 0 0 0 0 0 0 0 127 0" result="hardAlpha"/>
<feOffset dx="4" dy="4"/>
<feGaussianBlur stdDeviation="2"/>
<feComposite in2="hardAlpha" operator="arithmetic" k2="-1" k3="1"/>
<feColorMatrix type="matrix" values="0 0 0 0 1 0 0 0 0 1 0 0 0 0 1 0 0 0 0.25 0"/>
<feBlend mode="normal" in2="effect2_innerShadow_75_319" result="effect3_innerShadow_75_319"/>
<feColorMatrix in="SourceAlpha" type="matrix" values="0 0 0 0 0 0 0 0 0 0 0 0 0 0 0 0 0 0 127 0" result="hardAlpha"/>
<feOffset dx="6" dy="7"/>
<feGaussianBlur stdDeviation="2"/>
<feComposite in2="hardAlpha" operator="arithmetic" k2="-1" k3="1"/>
<feColorMatrix type="matrix" values="0 0 0 0 1 0 0 0 0 1 0 0 0 0 1 0 0 0 1 0"/>
<feBlend mode="normal" in2="effect3_innerShadow_75_319" result="effect4_innerShadow_75_319"/>
</filter>
</defs>
</svg>
