<svg width="260" height="90" viewBox="0 0 260 90" fill="none" xmlns="http://www.w3.org/2000/svg">
<g filter="url(#filter0_ii_73_228)">
<rect width="260" height="90" rx="30" fill="#FF6400"/>
</g>
<rect x="1.5" y="1.5" width="257" height="87" rx="28.5" stroke="white" stroke-width="3"/>
<g filter="url(#filter1_i_73_228)">
<path d="M56.0607 48C58.7607 49.6333 60.894 50.45 62.4607 50.45C63.4607 50.45 63.9607 50.1 63.9607 49.4C63.9607 48.9 63.094 48.25 61.3607 47.45C57.194 45.75 55.1107 42.9667 55.1107 39.1C55.1107 36.6333 56.0107 34.75 57.8107 33.45C59.6107 32.15 61.7607 31.5 64.2607 31.5C66.794 31.5 68.9274 31.7667 70.6607 32.3C72.4274 32.8333 73.3107 33.5333 73.3107 34.4C73.3107 35.1333 72.944 36.1 72.2107 37.3C71.5107 38.5 71.0274 39.15 70.7607 39.25C69.3274 38.45 67.7774 38.05 66.1107 38.05C65.2107 38.05 64.7607 38.3667 64.7607 39C64.7607 39.4 64.9274 39.75 65.2607 40.05C65.6274 40.3167 66.2774 40.6667 67.2107 41.1C68.144 41.5 68.9107 41.8667 69.5107 42.2C70.144 42.5333 70.844 43 71.6107 43.6C73.2107 44.8667 74.0107 46.5167 74.0107 48.55C74.0107 51.2167 73.1274 53.3833 71.3607 55.05C69.594 56.6833 66.9274 57.5 63.3607 57.5C60.994 57.5 58.844 57.1 56.9107 56.3C54.9774 55.5 54.0107 54.4 54.0107 53C54.0107 52.0667 54.2274 51.0833 54.6607 50.05C55.1274 49.0167 55.594 48.3333 56.0607 48ZM79.5205 32.3C79.5205 31.9333 80.9538 31.75 83.8205 31.75C86.6871 31.75 88.1205 31.9333 88.1205 32.3V46.9C88.1205 48.5667 88.6538 49.4 89.7205 49.4C90.5205 49.4 91.4205 49.05 92.4205 48.35V32.3C92.4205 31.9667 93.8371 31.8 96.6705 31.8C99.5038 31.8 100.92 31.9667 100.92 32.3V48.7H102.22C103.354 48.7 103.92 49.7833 103.92 51.95C103.92 53.05 103.687 54.1667 103.22 55.3C102.554 56.7667 101.654 57.5 100.52 57.5C98.2871 57.5 96.6371 56.5833 95.5705 54.75L95.5205 54.8C93.4871 56.6 91.3038 57.5 88.9705 57.5C85.7371 57.5 83.3538 56.7 81.8205 55.1C80.2871 53.4667 79.5205 50.7833 79.5205 47.05V32.3ZM109.468 22.15C109.468 21.75 110.901 21.55 113.768 21.55C116.668 21.55 118.118 21.7667 118.118 22.2V31.9C119.551 31.6333 120.568 31.5 121.168 31.5C128.168 31.5 131.668 35.5167 131.668 43.55C131.668 48.0167 130.584 51.4667 128.418 53.9C126.284 56.3 123.234 57.5 119.268 57.5C115.334 57.5 112.068 56.6167 109.468 54.85V22.15ZM119.768 39.3C119.201 39.3 118.651 39.4833 118.118 39.85V49.4C118.584 49.6 119.068 49.7 119.568 49.7C120.101 49.7 120.634 49.5 121.168 49.1C122.101 48.4333 122.568 46.8833 122.568 44.45C122.568 41.0167 121.634 39.3 119.768 39.3ZM160.094 56.75C160.094 56.9833 158.661 57.1 155.794 57.1C152.961 57.1 151.544 56.95 151.544 56.65V42.1C151.544 40.4333 150.994 39.6 149.894 39.6C149.328 39.6 148.578 39.9667 147.644 40.7V56.7C147.644 57.0333 146.211 57.2 143.344 57.2C140.511 57.2 139.094 57.0167 139.094 56.65V40.3H137.844C136.744 40.3 136.194 39.15 136.194 36.85C136.194 35.8167 136.394 34.7667 136.794 33.7C137.328 32.2333 138.194 31.5 139.394 31.5C140.594 31.5 141.744 31.8167 142.844 32.45C143.978 33.0833 144.661 33.6833 144.894 34.25C146.961 32.4167 149.244 31.5 151.744 31.5C154.278 31.5 156.311 32.2833 157.844 33.85C159.644 32.2833 161.811 31.5 164.344 31.5C169.844 31.5 172.594 34.85 172.594 41.55V56.75C172.594 56.9833 171.161 57.1 168.294 57.1C165.461 57.1 164.044 56.95 164.044 56.65V42.1C164.044 40.4333 163.494 39.6 162.394 39.6C161.794 39.6 161.028 39.9667 160.094 40.7V56.75ZM188.249 56.7C188.249 56.9667 186.715 57.1 183.649 57.1C180.615 57.1 179.099 56.9833 179.099 56.75V32.2C179.099 31.9667 180.615 31.85 183.649 31.85C186.715 31.85 188.249 31.95 188.249 32.15V56.7ZM188.249 29.2C188.249 29.4333 186.715 29.55 183.649 29.55C180.615 29.55 179.099 29.45 179.099 29.25V22.05C179.099 21.7167 180.615 21.55 183.649 21.55C186.715 21.55 188.249 21.65 188.249 21.85V29.2ZM206.52 56.7C206.52 57.1 205.12 57.3 202.32 57.3C198.987 57.1667 197.32 56.95 197.32 56.65V38.95H194.77C194.104 38.95 193.77 37.8 193.77 35.5C193.77 34.9 193.82 34.1667 193.92 33.3C194.054 32.4333 194.304 32 194.67 32H197.32V27.6C197.32 26.9333 198.72 26.6 201.52 26.6C204.354 26.6 205.77 26.8667 205.77 27.4V30.6L205.82 32H210.07C210.637 32 210.92 33.1667 210.92 35.5C210.92 37.8333 210.637 39 210.07 39H206.52V56.7Z" fill="white"/>
</g>
<defs>
<filter id="filter0_ii_73_228" x="0" y="-4" width="262" height="104" filterUnits="userSpaceOnUse" color-interpolation-filters="sRGB">
<feFlood flood-opacity="0" result="BackgroundImageFix"/>
<feBlend mode="normal" in="SourceGraphic" in2="BackgroundImageFix" result="shape"/>
<feColorMatrix in="SourceAlpha" type="matrix" values="0 0 0 0 0 0 0 0 0 0 0 0 0 0 0 0 0 0 127 0" result="hardAlpha"/>
<feOffset dx="2" dy="24"/>
<feGaussianBlur stdDeviation="5"/>
<feComposite in2="hardAlpha" operator="arithmetic" k2="-1" k3="1"/>
<feColorMatrix type="matrix" values="0 0 0 0 0.9875 0 0 0 0 0.60042 0 0 0 0 0.34974 0 0 0 1 0"/>
<feBlend mode="normal" in2="shape" result="effect1_innerShadow_73_228"/>
<feColorMatrix in="SourceAlpha" type="matrix" values="0 0 0 0 0 0 0 0 0 0 0 0 0 0 0 0 0 0 127 0" result="hardAlpha"/>
<feOffset dy="-14"/>
<feGaussianBlur stdDeviation="2"/>
<feComposite in2="hardAlpha" operator="arithmetic" k2="-1" k3="1"/>
<feColorMatrix type="matrix" values="0 0 0 0 0.795833 0 0 0 0 0.345976 0 0 0 0 0.0696354 0 0 0 1 0"/>
<feBlend mode="normal" in2="effect1_innerShadow_73_228" result="effect2_innerShadow_73_228"/>
</filter>
<filter id="filter1_i_73_228" x="54.0107" y="21.5498" width="156.91" height="39.9502" filterUnits="userSpaceOnUse" color-interpolation-filters="sRGB">
<feFlood flood-opacity="0" result="BackgroundImageFix"/>
<feBlend mode="normal" in="SourceGraphic" in2="BackgroundImageFix" result="shape"/>
<feColorMatrix in="SourceAlpha" type="matrix" values="0 0 0 0 0 0 0 0 0 0 0 0 0 0 0 0 0 0 127 0" result="hardAlpha"/>
<feOffset dy="4"/>
<feGaussianBlur stdDeviation="2"/>
<feComposite in2="hardAlpha" operator="arithmetic" k2="-1" k3="1"/>
<feColorMatrix type="matrix" values="0 0 0 0 0 0 0 0 0 0 0 0 0 0 0 0 0 0 0.25 0"/>
<feBlend mode="normal" in2="shape" result="effect1_innerShadow_73_228"/>
</filter>
</defs>
</svg>
